<svg width="770" height="431" viewBox="0 0 770 431" fill="none" xmlns="http://www.w3.org/2000/svg">
<path d="M109.396 288.719C107.386 288.719 105.405 288.259 103.614 287.376L7.38623 239.467C4.41939 237.991 2.17761 235.44 1.15089 232.371C0.124174 229.302 0.396009 225.966 1.90698 223.09L114.951 7.26563C115.702 5.83255 116.737 4.55678 117.999 3.51145C119.261 2.46613 120.723 1.67184 122.303 1.17413C123.883 0.676418 125.549 0.485087 127.206 0.611102C128.863 0.737117 130.477 1.17799 131.957 1.90846L223.501 47.06C226.44 48.5056 228.677 51.0054 229.734 54.0247C230.791 57.0441 230.584 60.3434 229.157 63.217L120.784 281.751C120.051 283.22 119.023 284.534 117.76 285.615C116.496 286.696 115.022 287.523 113.424 288.047C112.126 288.475 110.767 288.702 109.396 288.719ZM30.0986 223.31L103.627 259.919L201.066 63.4488L131.755 29.2801L30.0986 223.31Z" fill="#222222"/>
<path d="M240.191 118.9C238.019 118.899 235.884 118.357 233.992 117.326L197.304 97.3494C195.859 96.5633 194.589 95.5099 193.565 94.2492C192.541 92.9885 191.785 91.5453 191.338 90.0019C190.891 88.4586 190.763 86.8453 190.962 85.2542C191.16 83.6631 191.681 82.1253 192.494 80.7287C193.307 79.3321 194.397 78.104 195.701 77.1145C197.006 76.125 198.499 75.3935 200.095 74.9618C201.692 74.53 203.361 74.4065 205.007 74.5982C206.653 74.79 208.244 75.2933 209.689 76.0793L239.989 92.5657C251.819 85.6344 277.422 70.7099 293.81 61.765C320.562 47.1213 339.399 49.1348 361.025 68.9405C363.393 71.1798 364.755 74.2289 364.818 77.4302C364.881 80.6315 363.64 83.7285 361.362 86.0534C359.085 88.3783 355.953 89.7448 352.642 89.8581C349.332 89.9715 346.108 88.8227 343.666 86.6594C330.233 74.3587 323.239 73.7241 306.233 82.9985C285.174 94.506 247.186 116.887 246.794 117.167C244.8 118.321 242.515 118.921 240.191 118.9Z" fill="#222222"/>
<path d="M572.317 331.222C563.118 331.451 554.042 329.135 546.158 324.547C534.543 317.055 483.437 268.608 473.312 258.98C471.08 256.683 469.853 253.641 469.889 250.49C469.925 247.339 471.22 244.324 473.504 242.075C475.788 239.827 478.883 238.519 482.142 238.427C485.401 238.334 488.57 239.463 490.987 241.578C513.712 263.263 552.698 299.446 560.134 304.241C564.927 306.382 570.228 307.235 575.479 306.711C580.731 306.187 585.74 304.305 589.979 301.264C591.965 299.6 593.548 297.535 594.617 295.215C595.686 292.894 596.215 290.376 596.167 287.836C596.119 285.297 595.495 282.798 594.338 280.518C593.182 278.237 591.521 276.229 589.474 274.637C576.572 260.603 522.966 210.753 511.199 199.819C470.142 185.272 430.327 167.638 392.12 147.077L378.839 155.473C375.857 168.853 367.902 180.71 356.48 188.8C352.471 191.852 347.817 194.016 342.847 195.138C337.878 196.26 332.713 196.312 327.72 195.292C321.661 194.562 315.827 192.618 310.59 189.583C305.353 186.549 300.829 182.492 297.307 177.671C290.593 163.805 289.839 147.933 295.211 133.532C305.98 91.8704 323.453 81.1438 347.63 66.3048L352.945 63.0221C379.584 46.4869 402.448 37.6763 427.546 48.5981C443.151 55.3952 498.537 76.1283 514.267 82.0102L566.989 65.3041C570.148 64.3758 573.556 64.68 576.485 66.1516C579.414 67.6233 581.631 70.1452 582.659 73.1772C583.688 76.2091 583.447 79.5098 581.988 82.3721C580.529 85.2344 577.968 87.4306 574.855 88.4901L517.853 106.551C515.093 107.421 512.108 107.352 509.394 106.355C506.402 105.233 435.98 79.0449 417.232 70.8688C405.983 65.9875 394.103 66.4878 366.631 83.5478L361.202 86.9037C339.146 100.437 328.074 107.246 319.741 139.45C315.474 155.949 317.444 162.636 318.996 165.077C320.991 168.299 325.612 169.604 332.972 171.386C334.552 171.643 336.172 171.558 337.713 171.136C339.255 170.713 340.68 169.965 341.886 168.945C345.447 166.352 348.421 163.082 350.624 159.336C352.828 155.589 354.215 151.447 354.7 147.163C354.865 145.323 355.46 143.543 356.439 141.958C357.419 140.373 358.758 139.023 360.356 138.01L384.659 122.647C386.575 121.442 388.792 120.763 391.076 120.682C393.359 120.6 395.623 121.119 397.625 122.183C398.483 122.634 483.601 167.627 520.883 177.097C522.955 177.632 524.856 178.66 526.413 180.087C529.14 182.613 593.325 242.018 608.399 258.455C612.576 262.363 615.888 267.051 618.135 272.233C620.381 277.416 621.515 282.985 621.468 288.604C621.421 294.223 620.193 299.774 617.86 304.92C615.527 310.067 612.136 314.701 607.894 318.543C598.18 327.062 585.427 331.607 572.317 331.222Z" fill="#222222"/>
<path d="M598.956 278.737C596.063 278.735 593.258 277.773 591.012 276.011C588.765 274.25 587.212 271.796 586.613 269.06C586.014 266.324 586.406 263.473 587.722 260.983C589.038 258.492 591.199 256.515 593.843 255.38L638.131 236.416C639.654 235.722 641.304 235.328 642.986 235.259C644.668 235.19 646.348 235.447 647.925 236.014C649.503 236.582 650.948 237.449 652.174 238.564C653.4 239.679 654.383 241.02 655.065 242.507C655.747 243.995 656.114 245.6 656.145 247.227C656.176 248.854 655.87 250.47 655.245 251.981C654.62 253.492 653.689 254.867 652.506 256.025C651.323 257.183 649.913 258.101 648.357 258.724L604.056 277.736C602.447 278.409 600.709 278.749 598.956 278.737Z" fill="#222222"/>
<path d="M656.867 288.719C654.35 288.718 651.892 287.99 649.807 286.629C647.721 285.268 646.104 283.335 645.163 281.08L549.87 52.564C549.233 51.04 548.921 49.4074 548.953 47.7641C548.985 46.1208 549.36 44.5006 550.056 43.0008C550.751 41.5011 551.753 40.1526 553.001 39.0363C554.249 37.92 555.718 37.0589 557.319 36.5047L659.152 1.28644C662.232 0.221328 665.621 0.353783 668.602 1.6559C671.584 2.95801 673.926 5.32807 675.135 8.26662L768.56 234.927C769.171 236.426 769.47 238.027 769.438 239.637C769.406 241.248 769.044 242.836 768.374 244.311C767.704 245.786 766.738 247.118 765.533 248.23C764.328 249.342 762.906 250.213 761.351 250.792L661.386 287.865C659.947 288.415 658.415 288.704 656.867 288.719ZM578.162 55.1999L663.899 260.786L740.331 232.475L656.185 28.2309L578.162 55.1999ZM515.441 368.234C505.034 368.536 494.87 365.156 486.858 358.728C469.954 344.206 426.498 302.228 424.655 300.446C422.355 298.144 421.083 295.062 421.112 291.862C421.14 288.663 422.468 285.602 424.809 283.339C427.15 281.077 430.316 279.794 433.626 279.766C436.937 279.738 440.126 280.968 442.507 283.191C442.949 283.618 487.288 326.451 503.624 340.546C507.011 342.54 510.845 343.714 514.801 343.969C518.758 344.224 522.719 343.552 526.349 342.01C532.278 340.055 537.537 336.565 541.553 331.919C545.569 327.273 548.189 321.65 549.125 315.663C549.407 314.084 550.008 312.574 550.893 311.219C551.779 309.864 552.932 308.691 554.287 307.767C555.641 306.843 557.171 306.186 558.788 305.833C560.406 305.481 562.079 305.439 563.713 305.712C565.347 305.984 566.909 306.565 568.311 307.421C569.713 308.277 570.926 309.392 571.882 310.701C572.838 312.01 573.518 313.489 573.883 315.052C574.248 316.616 574.291 318.233 574.009 319.812C572.293 330.064 567.736 339.675 560.823 347.625C553.91 355.575 544.898 361.567 534.745 364.964C528.545 367.091 522.02 368.196 515.441 368.234Z" fill="#222222"/>
<path d="M456.685 397.815C446.299 398.243 436.15 394.741 428.392 388.052L383.548 344.707L401.412 327.439L446.256 370.785C449.031 372.291 452.103 373.217 455.271 373.503C458.44 373.789 461.636 373.428 464.651 372.445C470.442 371.07 475.745 368.217 480.005 364.183C484.265 360.149 487.325 355.083 488.866 349.515C489.333 347.962 490.114 346.513 491.166 345.255C492.217 343.996 493.516 342.952 494.989 342.183C496.461 341.414 498.077 340.936 499.742 340.776C501.407 340.616 503.089 340.778 504.689 341.252C506.289 341.726 507.776 342.503 509.062 343.537C510.349 344.571 511.41 345.843 512.184 347.277C512.958 348.711 513.429 350.28 513.57 351.892C513.711 353.504 513.519 355.126 513.005 356.666C509.493 368.492 502.105 378.897 491.951 386.317C481.797 393.737 469.414 397.772 456.685 397.815Z" fill="#222222"/>
<path d="M408.558 430.409C398.237 430.621 388.144 427.461 379.912 421.44C368.539 412.638 357.113 403.901 345.635 395.227C344.301 394.251 343.182 393.027 342.341 391.628C341.501 390.229 340.957 388.683 340.741 387.079C340.524 385.475 340.64 383.845 341.081 382.285C341.522 380.724 342.28 379.264 343.31 377.989C344.34 376.714 345.622 375.65 347.082 374.859C348.541 374.067 350.149 373.564 351.812 373.378C353.474 373.193 355.158 373.329 356.766 373.778C358.374 374.227 359.873 374.981 361.177 375.995C361.177 375.995 376.945 387.893 395.693 402.391C399.688 404.689 404.231 405.945 408.878 406.037C413.525 406.129 418.118 405.053 422.206 402.915C425.861 401.396 428.954 398.842 431.077 395.59C433.2 392.337 434.254 388.539 434.099 384.696C433.997 381.461 435.228 378.32 437.522 375.963C439.817 373.606 442.986 372.226 446.332 372.127C449.669 372.07 452.897 373.276 455.326 375.488C457.756 377.699 459.195 380.741 459.336 383.964C459.634 392.464 457.342 400.862 452.745 408.114C448.149 415.367 441.45 421.154 433.48 424.759C425.732 428.466 417.204 430.4 408.558 430.409Z" fill="#222222"/>
<path d="M313.946 424.759C309.843 424.745 305.782 423.958 301.991 422.441C291.696 417.558 283.209 409.726 277.687 400.012C268.728 401.692 259.443 400.343 251.39 396.192C244.634 391.912 238.827 386.376 234.306 379.907C229.785 373.438 226.64 366.164 225.054 358.509C224.388 355.392 225.009 352.147 226.783 349.466C237.048 333.993 252.526 309.94 254.836 304.925C256.915 300.923 259.864 297.404 263.481 294.606C267.099 291.809 271.299 289.801 275.794 288.719C281.908 287.17 288.303 286.962 294.511 288.111C300.72 289.26 306.584 291.736 311.674 295.358C317.315 298.967 321.845 303.98 324.787 309.869C327.729 315.757 328.973 322.304 328.389 328.818C334.395 329.069 340.274 330.561 345.632 333.194C350.99 335.828 355.701 339.541 359.447 344.085C363.086 349.581 365.408 355.794 366.245 362.269C367.082 368.745 366.411 375.319 364.282 381.512C357.66 399.376 344.065 414.024 326.407 422.319C322.464 423.93 318.227 424.76 313.946 424.759ZM298.948 386.674C302.912 393.153 309.995 402.452 316.623 399.78C327.627 394.24 336.099 384.933 340.383 373.677C341.226 371.186 341.549 368.558 341.332 365.946C341.115 363.334 340.363 360.789 339.121 358.46C337.2 356.642 334.92 355.216 332.417 354.269C329.914 353.321 327.239 352.87 324.551 352.944L298.948 386.674ZM251.087 357.996C253.095 364.777 257.449 370.686 263.421 374.739C265.286 375.664 267.327 376.209 269.418 376.341C271.509 376.473 273.606 376.19 275.579 375.508L302.533 330.844C303.605 328.084 303.674 325.054 302.728 322.251C301.783 319.448 299.88 317.039 297.332 315.419C295.393 313.942 293.156 312.874 290.764 312.283C288.372 311.693 285.879 311.593 283.444 311.99C281.295 312.333 279.334 313.38 277.889 314.956C274.556 322.095 258.523 346.696 251.087 357.996Z" fill="#222222"/>
<path d="M217.454 377.057C214.462 377.066 211.486 376.655 208.616 375.837C186.99 369.552 178.518 342.486 177.622 339.423C177.169 337.869 177.04 336.244 177.241 334.641C177.443 333.039 177.971 331.491 178.796 330.087C189.527 312.07 201.396 294.709 214.335 278.102C220.831 269.934 230.243 264.399 240.734 262.578C251.225 260.757 262.042 262.781 271.072 268.254C282.99 276.247 291.727 293.637 277.107 316.359C276.232 317.721 275.089 318.903 273.741 319.838C272.394 320.773 270.87 321.443 269.255 321.808C267.64 322.174 265.966 322.228 264.33 321.968C262.693 321.709 261.125 321.14 259.716 320.294C258.307 319.449 257.083 318.344 256.116 317.041C255.149 315.739 254.456 314.266 254.078 312.705C253.7 311.144 253.644 309.526 253.913 307.944C254.181 306.362 254.77 304.847 255.644 303.485C258.889 298.42 261.704 291.696 256.667 288.316C252.985 286.372 248.703 285.774 244.603 286.63C240.502 287.485 236.857 289.739 234.333 292.978C223.243 307.222 212.98 322.052 203.591 337.397C206.356 343.779 211.065 351.089 215.876 352.468C220.13 353.688 225.976 349.466 229.144 346.855C231.679 344.738 234.98 343.681 238.321 343.917C241.661 344.153 244.769 345.661 246.958 348.111C249.148 350.562 250.241 353.752 249.998 356.981C249.754 360.21 248.193 363.213 245.658 365.33C238.067 372.457 228.027 376.632 217.454 377.057Z" fill="#222222"/>
<path d="M189.742 348.27C188.354 348.268 186.977 348.046 185.664 347.611C183.53 346.915 133.207 329.916 133.207 291.818C133.206 290.539 133.41 289.266 133.813 288.047C138.381 275.896 144.637 264.401 152.41 253.879C158.194 247.198 166.182 242.648 175.031 240.994C183.879 239.341 193.047 240.684 200.991 244.8C208.468 248.003 214.432 253.799 217.704 261.044C220.976 268.289 221.319 276.457 218.666 283.935C210.409 309.635 201.938 339.008 201.849 339.313C201.108 341.879 199.518 344.139 197.323 345.75C195.128 347.361 192.447 348.233 189.691 348.233L189.742 348.27ZM158.558 293.71C159.821 305.132 171.915 313.82 181.611 319.031C184.906 307.902 189.792 291.708 194.59 276.735C195.03 275.784 195.255 274.753 195.25 273.711C195.246 272.669 195.011 271.64 194.561 270.693C194.112 269.745 193.458 268.902 192.645 268.218C191.831 267.535 190.876 267.027 189.843 266.729C187.234 265.306 184.248 264.663 181.262 264.88C178.276 265.097 175.423 266.165 173.064 267.949C167.211 275.963 162.343 284.608 158.558 293.71Z" fill="#222222"/>
<path d="M156.197 282.971C153.655 282.968 151.174 282.224 149.077 280.835L115.961 258.87C113.197 257.041 111.298 254.226 110.681 251.044C110.064 247.862 110.781 244.573 112.672 241.901C114.564 239.23 117.477 237.394 120.769 236.798C124.061 236.202 127.463 236.894 130.228 238.722L163.343 260.688C165.574 262.159 167.257 264.283 168.147 266.748C169.037 269.212 169.085 271.888 168.286 274.381C167.486 276.874 165.881 279.054 163.705 280.6C161.529 282.146 158.898 282.977 156.197 282.971Z" fill="#222222"/>
</svg>
