<svg width="584" height="672" viewBox="0 0 584 672" fill="none" xmlns="http://www.w3.org/2000/svg">
<path d="M582.611 5.58353C581.745 4.16981 580.522 3.00105 579.063 2.19087C577.603 1.38069 575.955 0.956655 574.28 0.95998H420.275C418.541 0.960097 416.838 1.41831 415.344 2.28696C413.849 3.15562 412.619 4.403 411.779 5.89942L292.266 218.803L172.218 5.88028C171.377 4.38884 170.146 3.14624 168.654 2.28114C167.162 1.41604 165.462 0.95991 163.731 0.95998H9.71744C8.04335 0.958754 6.39739 1.38422 4.93931 2.19509C3.48122 3.00596 2.26055 4.17468 1.3958 5.5878C0.531044 7.00092 0.0515774 8.61044 0.00393393 10.2601C-0.0437095 11.9098 0.342088 13.5436 1.12389 15.0029L125.677 247.664V300.39C125.677 302.145 126.166 303.865 127.091 305.365C128.015 306.864 129.34 308.083 130.92 308.89L194.425 341.265C168.687 357.383 147.505 379.66 132.853 406.022C118.2 432.384 110.554 461.973 110.626 492.033C110.626 590.736 192.085 671.04 292.207 671.04C392.339 671.04 473.789 590.736 473.789 492.033C473.861 461.963 466.207 432.365 451.54 405.999C436.873 379.634 415.671 357.36 389.912 341.255L453.397 308.89C454.977 308.083 456.302 306.864 457.227 305.365C458.152 303.865 458.641 302.145 458.641 300.39V247.262L582.883 14.9934C584.466 12.0259 584.359 8.46487 582.611 5.58353ZM152.176 22.0196L276.467 235.679H144.408L27.8856 22.0196H152.176ZM454.358 492.033C454.358 580.177 381.609 651.895 292.198 651.895C202.786 651.895 130.037 580.177 130.037 492.033C130.037 431.438 164.129 376.75 219.012 349.325C241.676 337.951 266.766 332.07 292.198 332.171C317.998 332.171 342.584 337.943 365.296 349.325C420.237 376.731 454.358 431.41 454.358 492.033ZM436.423 294.56L365.296 330.113C341.149 318.798 318.933 312.959 292.198 313.026C264.97 313.026 243.19 318.827 219.012 330.113L148.144 294.56V259.419H292.004H436.423V294.56ZM439.21 235.679H307.54L431.831 22.0196H556.122L439.21 235.679Z" fill="#4D4D4D"/>
<path d="M330.441 391.84H270.27L267.474 395.723C255.171 412.8 229.914 419.469 229.671 419.53L222.476 421.39V467.021H258.266V539.67L227.77 558.435V601.24H361.524V556.819L330.432 538.786L330.441 391.84ZM342.893 569.037V580.91H246.42V570.308L276.915 551.543V446.691H241.126V437.034C250.595 433.578 267.334 425.974 279.087 412.17H311.81V550.994L342.893 569.037Z" fill="#4D4D4D"/>
</svg>
