<svg width="294" height="299" viewBox="0 0 294 299" fill="none" xmlns="http://www.w3.org/2000/svg">
<path d="M230.764 81.0052C229.929 80.8637 228.954 80.8637 228.119 81.0052C208.903 80.2978 193.586 64.3102 193.586 44.5026C193.586 24.2705 209.599 8 229.511 8C249.423 8 265.436 24.412 265.436 44.5026C265.297 64.3102 249.98 80.2978 230.764 81.0052Z" stroke="#1358CD" stroke-width="15" stroke-linecap="round" stroke-linejoin="round"/>
<path d="M216.413 184.004C235.489 187.258 256.515 183.863 271.275 173.817C290.908 160.518 290.908 138.729 271.275 125.43C256.376 115.385 235.071 111.989 215.995 115.385" stroke="#1358CD" stroke-width="15" stroke-linecap="round" stroke-linejoin="round"/>
<path d="M63.2308 81.0052C64.0663 80.8637 65.041 80.8637 65.8765 81.0052C85.0921 80.2978 100.409 64.3102 100.409 44.5026C100.409 24.2705 84.3959 8 64.484 8C44.5721 8 28.5591 24.412 28.5591 44.5026C28.6983 64.3102 44.0151 80.2978 63.2308 81.0052Z" stroke="#1358CD" stroke-width="15" stroke-linecap="round" stroke-linejoin="round"/>
<path d="M77.5872 184.004C58.5108 187.258 37.4849 183.863 22.7251 173.817C3.09165 160.518 3.09165 138.729 22.7251 125.43C37.6242 115.385 58.9285 111.989 78.005 115.385" stroke="#1358CD" stroke-width="15" stroke-linecap="round" stroke-linejoin="round"/>
<path d="M147.218 186.693C146.382 186.552 145.408 186.552 144.572 186.693C125.356 185.986 110.039 169.998 110.039 150.191C110.039 129.958 126.053 113.688 145.965 113.688C165.877 113.688 181.89 130.1 181.89 150.191C181.75 169.998 166.434 186.127 147.218 186.693Z" stroke="#1358CD" stroke-width="15" stroke-linecap="round" stroke-linejoin="round"/>
<path d="M187.746 231.259C165.607 216.261 128.985 216.261 106.706 231.259C87.0729 244.558 87.0729 266.346 106.706 279.646C128.985 294.784 165.467 294.784 187.746 279.646" stroke="#1358CD" stroke-width="15" stroke-linecap="round" stroke-linejoin="round"/>
</svg>
